HIERARCHY
ROOT Hips
{
	OFFSET 0.000000 88.474243 0.000000
	CHANNELS 6 Xposition Yposition Zposition Zrotation Yrotation Xrotation 
	JOINT Hips_Spine
	{
		OFFSET 0.000000 0.000000 0.000000
		CHANNELS 3 Zrotation Yrotation Xrotation
		JOINT Spine
		{
			OFFSET 0.005100 8.711998 -0.691000
			CHANNELS 3 Zrotation Yrotation Xrotation
			JOINT Spine1
			{
				OFFSET -0.009200 8.660301 -1.275000
				CHANNELS 3 Zrotation Yrotation Xrotation
				JOINT Spine2
				{
					OFFSET 0.006300 9.852501 -1.857000
					CHANNELS 3 Zrotation Yrotation Xrotation
					JOINT Spine2_Neck
					{
						OFFSET 0.000000 0.000000 0.000000
						CHANNELS 3 Zrotation Yrotation Xrotation
						JOINT Neck
						{
							OFFSET 0.016300 11.420799 -0.263300
							CHANNELS 3 Zrotation Yrotation Xrotation
							End Site #name: Head
							{
								OFFSET -0.019200 9.262405 2.362500
							}
						}
					}
					JOINT Spine2_LeftShoulder
					{
						OFFSET 0.000000 0.000000 0.000000
						CHANNELS 3 Zrotation Yrotation Xrotation
						JOINT LeftShoulder
						{
							OFFSET 5.616900 6.732201 -0.345700
							CHANNELS 3 Zrotation Yrotation Xrotation
							JOINT LeftArm
							{
								OFFSET 10.664888 -0.183372 -2.440700
								CHANNELS 3 Zrotation Yrotation Xrotation
								JOINT LeftForeArm
								{
									OFFSET 27.459126 0.000000 0.000000
									CHANNELS 3 Zrotation Yrotation Xrotation
									End Site #name: LeftHand
									{
										OFFSET 21.306858 0.000000 0.000000
									}
								}
							}
						}
					}
					JOINT Spine2_RightShoulder
					{
						OFFSET 0.000000 0.000000 0.000000
						CHANNELS 3 Zrotation Yrotation Xrotation
						JOINT RightShoulder
						{
							OFFSET -5.580300 6.737503 -0.344400
							CHANNELS 3 Zrotation Yrotation Xrotation
							JOINT RightArm
							{
								OFFSET -10.679335 -0.188484 -2.383900
								CHANNELS 3 Zrotation Yrotation Xrotation
								JOINT RightForeArm
								{
									OFFSET -27.503529 0.000000 0.000000
									CHANNELS 3 Zrotation Yrotation Xrotation
									End Site #name: RightHand
									{
										OFFSET -21.306808 0.000000 0.000000
									}
								}
							}
						}
					}
				}
			}
		}
	}
	JOINT Hips_LeftUpLeg
	{
		OFFSET 0.000000 0.000000 0.000000
		CHANNELS 3 Zrotation Yrotation Xrotation
		JOINT LeftUpLeg
		{
			OFFSET 6.857700 -6.739601 0.312100
			CHANNELS 3 Zrotation Yrotation Xrotation
			JOINT LeftLeg
			{
				OFFSET -0.367590 -34.731552 -4.572400
				CHANNELS 3 Zrotation Yrotation Xrotation
				End Site #name: LeftFoot
				{
					OFFSET 0.367590 -34.656704 -6.067400
				}
			}
		}
	}
	JOINT Hips_RightUpLeg
	{
		OFFSET 0.000000 0.000000 0.000000
		CHANNELS 3 Zrotation Yrotation Xrotation
		JOINT RightUpLeg
		{
			OFFSET -6.876100 -6.733299 0.301000
			CHANNELS 3 Zrotation Yrotation Xrotation
			JOINT RightLeg
			{
				OFFSET 0.347353 -34.795158 -4.515900
				CHANNELS 3 Zrotation Yrotation Xrotation
				End Site #name: RightFoot
				{
					OFFSET -0.347353 -34.589367 -6.070300
				}
			}
		}
	}
}
MOTION
Frames: 17
Frame Time: 0.041667
0.993029 -0.220237 -0.170430 -5.818174 -7.843806 20.095110 -0.000000 -0.000000 0.000000 1.786968 0.400248 18.685166 1.015756 0.169207 13.619789 0.000000 0.000000 0.000000 0.842981 0.296707 13.673044 -1.811932 1.461668 1.618349 0.828239 0.081236 13.192903 -3.643078 -15.030518 2.120264 43.612545 -70.379381 -66.092764 -0.104796 -30.282024 -0.205519 0.838299 0.001584 12.461739 5.437263 14.181825 3.403187 -40.778360 71.575413 -43.805031 -0.052893 35.562627 0.036615 -0.000000 0.000000 -0.000000 1.451390 7.967489 -76.904139 -0.323025 -4.330035 62.097377 -0.000000 0.000000 -0.000000 12.153622 -7.175167 -86.731675 2.460325 3.490928 58.580676 
0.977489 -0.231758 -0.177671 -5.788170 -7.839928 20.047882 -0.000000 -0.000000 0.000000 1.797794 0.387366 18.638211 1.047336 0.196718 13.726906 0.000000 0.000000 0.000000 0.872795 0.320452 13.781522 -1.877228 1.522535 1.590557 0.852776 0.114236 13.304652 -3.469343 -14.893122 2.063759 45.789893 -70.286359 -68.869604 -0.102371 -30.350084 -0.208147 0.867803 0.028435 12.563260 5.175225 14.463383 3.399101 -43.859166 71.410420 -47.495539 -0.070699 36.061876 0.039073 -0.000000 0.000000 -0.000000 1.456824 7.967544 -76.894051 -0.319820 -4.324872 62.138952 -0.000000 0.000000 -0.000000 12.196376 -7.223886 -86.799082 2.456055 3.494618 58.687528 
0.956808 -0.243454 -0.185223 -5.754786 -7.842957 19.999035 -0.000000 -0.000000 0.000000 1.801984 0.368633 18.574638 1.079745 0.221977 13.842847 0.000000 0.000000 0.000000 0.901936 0.342644 13.896349 -1.946432 1.586138 1.561710 0.876197 0.145630 13.417770 -3.260145 -14.743662 2.001872 47.985800 -70.089813 -71.676989 -0.102144 -30.403767 -0.210307 0.894948 0.054372 12.671436 4.926908 14.753309 3.391265 -46.590079 71.070277 -50.743078 -0.092180 36.590205 0.040654 -0.000000 0.000000 -0.000000 1.461673 7.970457 -76.870735 -0.327818 -4.326244 62.171681 -0.000000 0.000000 -0.000000 12.235890 -7.268348 -86.860794 2.451080 3.498547 58.788397 
0.931058 -0.255047 -0.193083 -5.715853 -7.843684 19.946142 -0.000000 -0.000000 0.000000 1.800930 0.344610 18.498887 1.109098 0.244348 13.962081 0.000000 0.000000 0.000000 0.928902 0.362762 14.019463 -2.018227 1.651685 1.539868 0.899417 0.177643 13.534686 -3.031555 -14.586613 1.938857 50.100519 -69.820657 -74.377169 -0.102888 -30.506560 -0.212176 0.920506 0.078094 12.788944 4.718789 15.027990 3.380343 -49.090715 70.630727 -53.776057 -0.113794 37.157255 0.041435 -0.000000 0.000000 -0.000000 1.466247 7.975215 -76.832239 -0.336734 -4.323416 62.197501 -0.000000 0.000000 -0.000000 12.272415 -7.307300 -86.907712 2.448526 3.504485 58.879663 
0.900277 -0.266630 -0.201262 -5.671079 -7.845200 19.890404 -0.000000 -0.000000 0.000000 1.791446 0.314981 18.404402 1.134969 0.266939 14.091957 0.000000 0.000000 0.000000 0.956129 0.382312 14.149283 -2.084523 1.718809 1.528709 0.922421 0.207821 13.662093 -2.792272 -14.413394 1.873925 52.036551 -69.472331 -76.794503 -0.100613 -30.644451 -0.215295 0.943014 0.100265 12.912893 4.543486 15.292004 3.369915 -51.293117 70.136096 -56.527948 -0.135964 37.791363 0.044194 -0.000000 0.000000 -0.000000 1.472211 7.976397 -76.780823 -0.345918 -4.321870 62.215382 -0.000000 0.000000 -0.000000 12.308226 -7.349183 -86.948184 2.444081 3.510899 58.970006 
0.864762 -0.278001 -0.209598 -5.622509 -7.849328 19.832035 -0.000000 -0.000000 0.000000 1.774973 0.285669 18.300542 1.158489 0.285886 14.242366 0.000000 0.000000 0.000000 0.981322 0.402426 14.287732 -2.150065 1.786660 1.525848 0.943023 0.239025 13.797190 -2.567034 -14.223466 1.809553 53.734574 -69.086888 -78.842420 -0.099753 -30.801271 -0.218127 0.963914 0.120801 13.040023 4.392798 15.523481 3.351864 -53.233763 69.648899 -59.081231 -0.158694 38.520617 0.047322 -0.000000 0.000000 -0.000000 1.478781 7.986938 -76.717037 -0.363983 -4.324381 62.233172 -0.000000 0.000000 -0.000000 12.343401 -7.385181 -86.981584 2.439443 3.518139 59.052165 
0.824865 -0.289035 -0.218029 -5.572880 -7.857437 19.770806 -0.000000 -0.000000 0.000000 1.763797 0.242423 18.188367 1.180610 0.303624 14.400820 0.000000 0.000000 0.000000 1.005248 0.422018 14.432265 -2.213921 1.854341 1.532583 0.961803 0.270061 13.938645 -2.216602 -13.919761 1.712285 55.180940 -68.647837 -80.414507 -0.104210 -30.859091 -0.219650 0.983153 0.142425 13.169037 4.270536 15.726974 3.324104 -54.735924 69.183073 -61.360860 -0.182607 39.344101 0.043541 -0.000000 0.000000 -0.000000 1.478306 7.999451 -76.643385 -0.375396 -4.325678 62.238116 -0.000000 0.000000 -0.000000 12.379007 -7.423660 -87.012339 2.437210 3.523366 59.140055 
0.780847 -0.299498 -0.226455 -5.519178 -7.865975 19.706201 -0.000000 -0.000000 0.000000 1.762124 0.191556 18.074087 1.201431 0.325199 14.571760 0.000000 0.000000 0.000000 1.028345 0.446084 14.589336 -2.279319 1.922935 1.544962 0.979184 0.305461 14.085797 -1.852655 -13.569539 1.610435 56.287884 -68.171461 -81.587383 -0.105897 -30.972237 -0.219947 1.000366 0.169842 13.311764 4.200709 15.896107 3.294271 -55.850985 68.725317 -63.489118 -0.199248 40.059287 0.038471 -0.000000 0.000000 -0.000000 1.485331 8.009287 -76.547272 -0.392422 -4.329264 62.223391 -0.000000 0.000000 -0.000000 12.409425 -7.465210 -87.036862 2.435640 3.528731 59.223018 
0.732960 -0.309179 -0.234732 -5.465682 -7.879508 19.641434 -0.000000 -0.000000 0.000000 1.755984 0.142977 17.959492 1.221918 0.349537 14.753744 0.000000 0.000000 0.000000 1.051245 0.477545 14.754150 -2.347798 1.989719 1.552668 0.996887 0.345400 14.245238 -1.470506 -13.216199 1.509903 57.112496 -67.678273 -82.436080 -0.107359 -31.150977 -0.220039 1.014842 0.206665 13.461563 4.128669 16.067971 3.257742 -56.798856 68.128809 -65.624037 -0.215798 40.764698 0.032439 -0.000000 0.000000 -0.000000 1.495448 8.023412 -76.428856 -0.406342 -4.330467 62.186778 -0.000000 0.000000 -0.000000 12.445552 -7.508643 -87.063307 2.433765 3.528846 59.299850 
0.682020 -0.318178 -0.242777 -5.407017 -7.888864 19.574452 -0.000000 -0.000000 0.000000 1.751997 0.110405 17.853178 1.242718 0.376496 14.940469 0.000000 0.000000 0.000000 1.073539 0.512231 14.927468 -2.411085 2.051950 1.568739 1.014433 0.387907 14.409474 -1.087371 -12.857860 1.410421 57.792874 -67.187934 -83.088088 -0.107676 -31.339955 -0.216460 1.027287 0.243765 13.619155 4.055428 16.245647 3.236295 -57.858846 67.485531 -68.132083 -0.226295 41.120141 0.029237 -0.000000 0.000000 -0.000000 1.500775 8.034133 -76.307152 -0.424313 -4.331828 62.151892 -0.000000 0.000000 -0.000000 12.480626 -7.551305 -87.082709 2.431907 3.528632 59.373680 
0.628509 -0.326607 -0.250319 -5.347180 -7.903049 19.507955 -0.000000 -0.000000 0.000000 1.749871 0.076984 17.746803 1.261510 0.402949 15.136078 0.000000 0.000000 0.000000 1.095509 0.546801 15.112036 -2.474393 2.113696 1.584070 1.031920 0.429360 14.580805 -0.692255 -12.505791 1.312902 58.417320 -66.728037 -83.684006 -0.105347 -31.561711 -0.214966 1.041025 0.278697 13.782691 3.946763 16.442942 3.217575 -58.853246 66.850004 -70.606053 -0.232599 41.306348 0.022212 -0.000000 0.000000 -0.000000 1.504813 8.043495 -76.187367 -0.442402 -4.332872 62.121166 -0.000000 0.000000 -0.000000 12.517554 -7.597806 -87.099219 2.433711 3.532282 59.446387 
0.572967 -0.334647 -0.257175 -5.284012 -7.916190 19.439971 -0.000000 -0.000000 0.000000 1.743591 0.035616 17.642736 1.281172 0.428832 15.339734 0.000000 0.000000 0.000000 1.112706 0.579864 15.321860 -2.538278 2.175861 1.595372 1.050633 0.470874 14.758378 -0.306319 -12.138994 1.215998 58.984251 -66.272426 -84.199173 -0.101807 -31.805418 -0.216152 1.055230 0.310091 13.961344 3.833656 16.636818 3.198046 -60.177033 66.113367 -73.408636 -0.237037 41.574800 0.018703 -0.000000 0.000000 -0.000000 1.506028 8.058624 -76.074963 -0.455663 -4.330625 62.097171 -0.000000 0.000000 -0.000000 12.551331 -7.641370 -87.108885 2.436302 3.536819 59.506914 
0.516006 -0.342221 -0.263037 -5.220686 -7.932003 19.377660 -0.000000 -0.000000 0.000000 1.733310 -0.007867 17.536126 1.298092 0.454593 15.543652 0.000000 0.000000 0.000000 1.126966 0.611909 15.536297 -2.605423 2.237190 1.596325 1.066385 0.510747 14.940536 0.063539 -11.775378 1.126038 59.529814 -65.835679 -84.664877 -0.097850 -32.037169 -0.216325 1.067538 0.341626 14.156006 3.684310 16.857576 3.175920 -61.470436 65.076457 -76.262942 -0.236070 41.880452 0.022739 -0.000000 0.000000 -0.000000 1.504034 8.067113 -75.970736 -0.468296 -4.328985 62.073684 -0.000000 0.000000 -0.000000 12.585018 -7.693594 -87.118313 2.443545 3.542793 59.565777 
0.457894 -0.349314 -0.267958 -5.156698 -7.946109 19.319516 -0.000000 -0.000000 0.000000 1.717588 -0.050536 17.421633 1.312038 0.477901 15.743200 0.000000 0.000000 0.000000 1.139110 0.641856 15.751841 -2.673876 2.295884 1.585204 1.079812 0.548547 15.118140 0.356094 -11.499575 1.059340 60.039266 -65.402487 -85.097450 -0.093700 -32.298973 -0.217117 1.077336 0.369796 14.349305 3.501367 17.096450 3.152597 -62.491155 63.839006 -78.713184 -0.231551 42.152096 0.026094 -0.000000 0.000000 -0.000000 1.503668 8.081575 -75.876395 -0.478870 -4.324667 62.056702 -0.000000 0.000000 -0.000000 12.618671 -7.743433 -87.119764 2.445946 3.546421 59.614557 
0.398995 -0.355882 -0.271819 -5.092418 -7.958958 19.261234 -0.000000 -0.000000 0.000000 1.698774 -0.098844 17.306168 1.321501 0.503991 15.927146 0.000000 0.000000 0.000000 1.146175 0.668616 15.960225 -2.746466 2.350944 1.557630 1.090761 0.579025 15.301649 0.635780 -11.221981 0.995096 60.557654 -65.026321 -85.537260 -0.089681 -32.549385 -0.216317 1.083281 0.393637 14.536749 3.344146 17.314954 3.135628 -63.445409 62.608727 -81.090381 -0.225242 42.395238 0.029866 -0.000000 0.000000 -0.000000 1.497753 8.098661 -75.787454 -0.484299 -4.320164 62.038820 -0.000000 0.000000 -0.000000 12.653029 -7.793605 -87.110082 2.449377 3.551051 59.645348 
0.339668 -0.361987 -0.274450 -5.029178 -7.969414 19.204229 -0.000000 -0.000000 0.000000 1.666721 -0.127921 17.188569 1.325953 0.533173 16.095643 0.000000 0.000000 0.000000 1.148014 0.691570 16.158081 -2.818493 2.403152 1.513767 1.097826 0.600800 15.494393 0.893051 -10.945655 0.934317 61.052100 -64.692849 -85.943435 -0.090629 -32.814147 -0.213797 1.081969 0.418094 14.709006 3.209188 17.500980 3.126619 -64.197124 61.414114 -83.159310 -0.215173 42.591350 0.031386 -0.000000 0.000000 -0.000000 1.484122 8.116795 -75.706764 -0.490616 -4.315802 62.026037 -0.000000 0.000000 -0.000000 12.684397 -7.844848 -87.082403 2.451008 3.554574 59.662528 
0.280164 -0.367637 -0.275825 -4.964019 -7.969778 19.150011 -0.000000 -0.000000 0.000000 1.617978 -0.133240 17.076420 1.325137 0.560500 16.251612 0.000000 0.000000 0.000000 1.144426 0.712698 16.341005 -2.890931 2.452070 1.455539 1.099341 0.622166 15.671822 1.107981 -10.667419 0.881679 61.396412 -64.416948 -86.206243 -0.094290 -33.120130 -0.208174 1.075214 0.441235 14.868020 3.089191 17.661695 3.121523 -64.758872 60.293868 -84.888410 -0.200468 42.768933 0.036284 -0.000000 0.000000 -0.000000 1.472985 8.132310 -75.636317 -0.492006 -4.306402 62.019019 -0.000000 0.000000 -0.000000 12.716871 -7.900852 -87.051512 2.454143 3.557535 59.670398 
